<?xml version="1.0" standalone="no"?>
<!DOCTYPE svg PUBLIC "-//W3C//DTD SVG 20010904//EN"
 "http://www.w3.org/TR/2001/REC-SVG-20010904/DTD/svg10.dtd">
<svg version="1.0" xmlns="http://www.w3.org/2000/svg"
 width="160.000000pt" height="160.000000pt" viewBox="0 0 160.000000 160.000000"
 preserveAspectRatio="xMidYMid meet">
<metadata>
Created by potrace 1.14, written by Peter Selinger 2001-2017
</metadata>
<g transform="translate(0.000000,160.000000) scale(0.100000,-0.100000)"
fill="#000000" stroke="none">
<path d="M180 1545 c-30 -25 -56 -49 -58 -53 -3 -11 186 -137 194 -129 9 9
-63 227 -75 227 -3 -1 -31 -21 -61 -45z"/>
<path d="M429 1547 c-6 -64 -5 -158 1 -162 11 -7 114 125 104 134 -5 5 -30 15
-56 24 -35 12 -48 13 -49 4z"/>
<path d="M1360 1448 c-34 -92 -68 -198 -65 -198 12 0 205 123 205 131 0 9
-110 99 -122 99 -3 0 -11 -15 -18 -32z"/>
<path d="M1140 1456 c-25 -7 -51 -15 -58 -17 -9 -3 2 -27 34 -77 45 -70 60
-85 61 -59 0 6 4 47 8 90 4 42 6 77 4 76 -2 0 -24 -6 -49 -13z"/>
<path d="M45 1366 c-8 -20 -16 -46 -18 -58 -2 -22 1 -23 80 -25 46 -1 85 3 88
8 4 5 2 9 -3 9 -4 0 -17 8 -28 18 -10 9 -38 32 -62 51 l-42 33 -15 -36z"/>
<path d="M560 1290 c-19 -19 -21 -19 -54 -3 -29 14 -39 14 -65 3 -20 -8 -34
-22 -38 -39 -9 -35 -32 -51 -60 -40 -45 17 -99 -13 -103 -56 -4 -40 0 -54 27
-86 l27 -32 -30 15 c-36 17 -66 13 -89 -12 -29 -32 -12 -79 55 -153 56 -61 82
-100 42 -64 -55 50 -121 33 -122 -33 0 -28 28 -65 140 -184 166 -177 238 -244
290 -273 58 -33 157 -70 202 -76 20 -2 36 -16 57 -47 100 -148 105 -152 197
-136 40 7 42 6 64 -28 19 -32 26 -36 65 -36 145 0 316 157 369 338 8 29 13 58
10 65 -2 7 -38 35 -78 62 l-74 50 -4 75 c-3 47 -17 114 -37 179 -33 103 -34
105 -114 186 -45 44 -98 104 -117 133 -38 57 -62 65 -98 35 -12 -10 -25 -33
-29 -52 l-9 -35 -29 47 c-32 50 -60 60 -88 33 -13 -13 -25 -5 -93 67 -44 46
-91 90 -106 100 -36 23 -83 22 -108 -3z"/>
<path d="M1487 1193 c-3 -3 -33 -15 -67 -27 -34 -12 -61 -26 -61 -31 0 -9 72
-37 129 -50 l32 -7 -2 56 c-2 50 -16 75 -31 59z"/>
</g>
</svg>
